<svg width="243" height="205" viewBox="0 0 243 205" fill="none" xmlns="http://www.w3.org/2000/svg">
<g clip-path="url(#clip0_833_4120)">
<path d="M175.442 109H201.466C202.732 109 203.962 109.202 205.155 109.624C206.903 110.264 208.449 111.361 209.63 112.801C210.811 114.241 211.585 115.972 211.871 117.812C211.982 118.492 212 119.171 212 119.85V145.241C212 146.05 211.963 146.875 211.798 147.665C211.427 149.492 210.571 151.185 209.321 152.567C208.091 153.944 206.476 154.972 204.733 155.523C203.668 155.853 202.566 156 201.447 156C200.952 156 175.369 156 174.984 155.981C173.112 155.889 171.258 155.284 169.698 154.237C168.168 153.202 166.934 151.784 166.119 150.125C165.422 148.711 165.073 147.132 165.073 145.554V119.446C165.034 117.891 165.367 116.349 166.046 114.949C166.835 113.296 168.065 111.847 169.588 110.818C171.148 109.752 172.983 109.129 174.855 109.038C175.039 109 175.24 109 175.442 109Z" fill="#1C6AF2"/>
<path d="M204.641 147.445C204.474 147.182 204.29 146.931 204.09 146.693C203.632 146.145 203.101 145.663 202.512 145.261C201.778 144.765 200.914 144.452 200.034 144.416C199.41 144.378 198.786 144.49 198.199 144.71C197.612 144.912 197.043 145.205 196.492 145.499C195.85 145.83 195.207 146.16 194.528 146.436C193.715 146.767 192.874 147.025 192.014 147.206C190.931 147.408 189.83 147.482 188.747 147.463C186.784 147.426 184.82 147.133 182.948 146.582C181.302 146.09 179.718 145.406 178.231 144.544C176.937 143.795 175.714 142.929 174.579 141.955C173.652 141.153 172.781 140.288 171.973 139.367C171.423 138.724 170.891 138.045 170.395 137.347C170.194 137.071 170.01 136.783 169.844 136.484L165 131.251V119.41C165 113.663 169.643 109 175.387 109H184.655L191.519 115.976C207.008 126.515 201.998 138.136 201.998 138.136C201.998 138.136 206.403 143.093 204.641 147.445Z" fill="#1C6AF2"/>
<path d="M191.556 115.977C207.046 126.515 202.035 138.136 202.035 138.136C202.035 138.136 206.44 143.112 204.66 147.463C204.66 147.463 202.843 144.415 199.796 144.415C196.86 144.415 195.136 147.463 189.226 147.463C176.067 147.463 169.846 136.465 169.846 136.465C181.701 144.269 189.795 138.742 189.795 138.742C184.454 135.64 173.094 120.805 173.094 120.805C182.986 129.232 187.262 131.453 187.262 131.453C184.711 129.342 177.554 119.024 177.554 119.024C183.28 124.826 194.659 132.922 194.659 132.922C197.888 123.963 191.556 115.977 191.556 115.977Z" fill="white"/>
</g>
<g clip-path="url(#clip1_833_4120)">
<path d="M88.3407 176.82C88.3407 176.82 93.4889 166.712 94.8013 165.141C96.1137 163.571 100.457 161.438 103.277 159.181C107.409 155.499 110.89 151.146 113.574 146.306L131.049 65.6855C131.049 65.6855 142.072 55.3501 146.97 50.5144C151.869 45.6787 151.994 42.1008 149.986 39.0228C147.978 35.9448 143.017 36.3901 141.338 37.3901C139.658 38.39 84.091 75.2241 75.3883 84.0986C66.6856 92.9732 64.842 97.8245 62.4983 102.512C60.1547 107.199 31.3594 176.336 31.3594 176.336" fill="white"/>
<path d="M88.3407 176.82C88.3407 176.82 93.4889 166.712 94.8013 165.141C96.1137 163.571 100.457 161.438 103.277 159.181C107.409 155.499 110.89 151.146 113.574 146.306L131.049 65.6855C131.049 65.6855 142.072 55.3501 146.97 50.5144C151.869 45.6787 151.994 42.1008 149.986 39.0228C147.978 35.9448 143.017 36.3901 141.338 37.3901C139.658 38.39 84.091 75.2241 75.3883 84.0986C66.6856 92.9732 64.842 97.8245 62.4983 102.512C60.1547 107.199 31.3594 176.336 31.3594 176.336" stroke="#0A0A0A" stroke-miterlimit="10"/>
<path d="M118.41 140.471C118.41 140.471 118.41 135.783 124.808 134.448C131.206 133.112 132.62 134.065 133.855 135.947" stroke="#0A0A0A" stroke-miterlimit="10"/>
<path d="M108.602 29.4331L67.6248 41.7735C64.3198 42.7688 62.4475 46.2549 63.4428 49.5599L93.4874 149.324C94.4827 152.629 97.9688 154.501 101.274 153.506L142.251 141.166C145.556 140.17 147.428 136.684 146.433 133.379L116.388 33.6151C115.393 30.3101 111.907 28.4378 108.602 29.4331Z" fill="#0A0A0A" stroke="#0A0A0A" stroke-miterlimit="10"/>
<path d="M113.623 27.6767L72.6463 40.0172C69.3413 41.0125 67.469 44.4986 68.4643 47.8035L98.5089 147.568C99.5042 150.873 102.99 152.745 106.295 151.75L147.272 139.409C150.577 138.414 152.449 134.928 151.454 131.623L121.409 31.8588C120.414 28.5538 116.928 26.6814 113.623 27.6767Z" fill="white" stroke="#0A0A0A" stroke-miterlimit="10"/>
<path d="M86.2715 39.9056L98.5755 36.0151" stroke="#0A0A0A" stroke-miterlimit="10"/>
<path d="M113.451 58.6944L90.6709 65.5721C86.8173 66.7355 84.6365 70.8027 85.8 74.6563L92.3955 96.5015C93.5589 100.355 97.6261 102.536 101.48 101.372L124.26 94.4948C128.113 93.3313 130.294 89.2641 129.131 85.4105L122.535 63.5653C121.372 59.7117 117.305 57.5309 113.451 58.6944Z" fill="#1C6AF2"/>
<path d="M75.9434 114.855C75.9434 114.855 110.09 87.989 111.348 87.3641C111.822 87.1509 112.337 87.0444 112.856 87.0522C113.376 87.0599 113.887 87.1818 114.355 87.4091C114.822 87.6364 115.233 87.9636 115.56 88.3675C115.887 88.7715 116.121 89.2423 116.246 89.7468C117.121 92.6372 115.988 105.566 105.95 115.113C95.9111 124.659 97.286 122.768 97.286 122.768C97.286 122.768 106.45 143.986 92.3879 158.931" fill="white"/>
<path d="M75.9434 114.855C75.9434 114.855 110.09 87.989 111.348 87.3641C111.822 87.1509 112.337 87.0444 112.856 87.0522C113.376 87.0599 113.887 87.1818 114.355 87.4091C114.822 87.6364 115.233 87.9636 115.56 88.3675C115.887 88.7715 116.121 89.2423 116.246 89.7468C117.121 92.6372 115.988 105.566 105.95 115.113C95.9111 124.659 97.286 122.768 97.286 122.768C97.286 122.768 106.45 143.986 92.3879 158.931" stroke="#0A0A0A" stroke-miterlimit="10"/>
<path d="M102.082 97.9105C102.082 97.9105 104.098 100.34 106.769 99.9182C109.441 99.4964 111.964 96.7934 112.8 95.395" fill="white"/>
<path d="M102.082 97.9105C102.082 97.9105 104.098 100.34 106.769 99.9182C109.441 99.4964 111.964 96.7934 112.8 95.395" stroke="#0A0A0A" stroke-miterlimit="10"/>
<path d="M111.925 73.6146L112.824 69.6305C112.836 69.5774 112.837 69.5224 112.828 69.4687C112.819 69.415 112.799 69.3637 112.769 69.318C112.726 69.2498 112.664 69.1957 112.59 69.1624C112.516 69.129 112.435 69.118 112.355 69.1305C112.302 69.1369 112.251 69.1557 112.206 69.1852C112.16 69.2132 112.12 69.2504 112.089 69.2946C112.057 69.3391 112.033 69.3895 112.019 69.443L111.113 73.4662C109.313 73.2533 107.488 73.4214 105.757 73.9598C104.026 74.4982 102.428 75.3947 101.066 76.5911L98.0275 73.7943C97.9883 73.7586 97.9434 73.7296 97.8947 73.7084H97.7307C97.6763 73.7094 97.6228 73.7228 97.5744 73.7475C97.5242 73.7694 97.4791 73.8013 97.4416 73.8412C97.4015 73.88 97.3719 73.9284 97.3557 73.9818C97.3475 74.0336 97.3475 74.0863 97.3557 74.1381C97.3449 74.1922 97.3449 74.2479 97.3557 74.3021C97.3778 74.3499 97.4097 74.3925 97.4494 74.4271L100.441 77.2004C99.0502 78.6445 98.037 80.4098 97.4919 82.3395C96.9467 84.2693 96.8865 86.3037 97.3166 88.2623L120.8 80.9658C120.042 79.1073 118.835 77.4654 117.288 76.1868C115.741 74.9081 113.901 74.0325 111.933 73.6381L111.925 73.6146ZM102.637 82.9892C102.443 83.0478 102.237 83.0478 102.043 82.9892C101.849 82.9291 101.675 82.8154 101.543 82.6611C101.412 82.5034 101.33 82.3104 101.309 82.1064C101.284 81.9036 101.325 81.6984 101.426 81.5205C101.519 81.3401 101.663 81.1908 101.84 81.0908C102.019 80.9939 102.223 80.9531 102.426 80.9736C102.63 80.9886 102.824 81.068 102.98 81.2002C103.143 81.3234 103.261 81.4961 103.316 81.6924C103.397 81.9519 103.371 82.2326 103.246 82.4736C103.183 82.5924 103.096 82.6972 102.992 82.7818C102.887 82.8664 102.766 82.9289 102.637 82.9657V82.9892ZM113.417 79.6378C113.224 79.6965 113.017 79.6965 112.824 79.6378C112.627 79.5824 112.453 79.4679 112.324 79.3097C112.192 79.152 112.111 78.959 112.089 78.755C112.067 78.5532 112.105 78.3492 112.199 78.1691C112.293 77.9888 112.44 77.8417 112.62 77.7472C112.799 77.6471 113.003 77.6036 113.206 77.6222C113.408 77.6389 113.599 77.7181 113.753 77.8488C113.916 77.9734 114.036 78.1454 114.097 78.341C114.137 78.4697 114.151 78.6053 114.136 78.7394C114.126 78.8757 114.089 79.0086 114.027 79.13C113.963 79.2509 113.876 79.3573 113.769 79.4425C113.672 79.5207 113.56 79.5791 113.441 79.6143L113.417 79.6378Z" fill="white"/>
<path d="M145.9 92.1372C147.397 93.2787 148.636 94.7244 149.534 96.3793C150.432 98.0342 150.969 99.8606 151.11 101.738L151.493 115.019C151.493 115.019 145.525 115.581 142.447 111.566C139.369 107.55 139.752 104.277 139.752 104.277" fill="white"/>
<path d="M145.9 92.1372C147.397 93.2787 148.636 94.7244 149.534 96.3793C150.432 98.0342 150.969 99.8606 151.11 101.738L151.493 115.019C151.493 115.019 145.525 115.581 142.447 111.566C139.369 107.55 139.752 104.277 139.752 104.277" stroke="#0A0A0A" stroke-miterlimit="10"/>
<path d="M141.089 76.6772C141.089 76.6772 145.44 81.3645 145.776 83.0441C146.112 84.7237 146.557 105.473 146.557 105.473C146.557 105.473 140.362 106.394 137.964 103.379C135.566 100.364 134.058 96.934 134.199 93.1686" fill="white"/>
<path d="M141.089 76.6772C141.089 76.6772 145.44 81.3645 145.776 83.0441C146.112 84.7237 146.557 105.473 146.557 105.473C146.557 105.473 140.362 106.394 137.964 103.379C135.566 100.364 134.058 96.934 134.199 93.1686" stroke="#0A0A0A" stroke-miterlimit="10"/>
<path d="M133.894 73.1302C132.37 74.4257 131.135 76.0271 130.27 77.8305C129.404 79.6339 128.928 81.599 128.871 83.5984C128.707 90.3793 134.394 93.4729 136.402 94.2229C138.409 94.9728 140.753 93.2229 140.753 93.2229L140.925 69.6148L135.402 61.6855L131.496 65.2869L133.894 73.1302Z" fill="white" stroke="#0A0A0A" stroke-miterlimit="10"/>
</g>
<defs>
<clipPath id="clip0_833_4120">
<rect width="47" height="47" fill="white" transform="translate(165 109)"/>
</clipPath>
<clipPath id="clip1_833_4120">
<rect width="121.111" height="150" fill="white" transform="translate(31 27)"/>
</clipPath>
</defs>
</svg>
