<svg width="243" height="205" viewBox="0 0 243 205" fill="none" xmlns="http://www.w3.org/2000/svg">
<path d="M205.001 102.5L206.001 75.5H193L192 74.5L180 65L170.5 51L152 47L151.5 61.5L152 70L160 72.5L161.5 74.5L166 85L153.501 78C152.501 80.8333 151.201 86.9 154.001 88.5C156.801 90.1 189.167 98.5 205.001 102.5Z" fill="white"/>
<g clip-path="url(#clip0_833_4113)">
<path d="M62.5 136.5H36.5L39 124.5V116.5L51 98L64.5 85L74 88L74.5 113.5C73.6667 114.167 71.4 116.1 69 118.5C66.6 120.9 63.6667 123.167 62.5 124V136.5Z" fill="white"/>
<path d="M130.423 84H73V141.211H130.423V84Z" fill="#0A0A0A"/>
<path d="M133.507 80.4082H76.084V137.62H133.507V80.4082Z" fill="white" stroke="#0A0A0A" stroke-miterlimit="10"/>
<path d="M143.422 149.901C143.422 149.901 153.368 140.18 154.7 139.049C156.154 137.82 157.988 137.126 159.894 137.086C161.793 137.086 163.882 138.287 165.34 139.363L161.793 143.085" fill="white"/>
<path d="M143.422 149.901C143.422 149.901 153.368 140.18 154.7 139.049C156.154 137.82 157.988 137.126 159.894 137.086C161.793 137.086 163.882 138.287 165.34 139.363L161.793 143.085" stroke="#0A0A0A" stroke-miterlimit="10"/>
<path d="M143.636 108.503H103.945V158.648H143.636V108.503Z" fill="white" stroke="#0A0A0A" stroke-miterlimit="10"/>
<path d="M141.271 154.447C141.271 154.447 154.669 141.742 157.034 141.742C161.841 141.742 163.615 144.514 163.615 144.514C163.615 144.514 152.305 155.036 144.699 163.446C137.094 171.856 133.216 170.937 130.852 170.937H109.068V183.555C109.068 183.555 85.9285 183.972 85.8418 184.058V173.457C85.8418 171.691 87.615 163.359 92.8561 160.109C98.0972 156.858 101.47 155.821 103.102 154.895C104.733 153.968 110.368 151.11 115.767 151.11C121.166 151.11 134.517 153.803 137.724 154.306C140.932 154.808 149.633 154.219 149.633 162.943H126.407" fill="white"/>
<path d="M141.271 154.447C141.271 154.447 154.669 141.742 157.034 141.742C161.841 141.742 163.615 144.514 163.615 144.514C163.615 144.514 152.305 155.036 144.699 163.446C137.094 171.856 133.216 170.937 130.852 170.937H109.068V183.555C109.068 183.555 85.9285 183.972 85.8418 184.058V173.457C85.8418 171.691 87.615 163.359 92.8561 160.109C98.0972 156.858 101.47 155.821 103.102 154.895C104.733 153.968 110.368 151.11 115.767 151.11C121.166 151.11 134.517 153.803 137.724 154.306C140.932 154.808 149.633 154.219 149.633 162.943H126.407" stroke="#0A0A0A" stroke-miterlimit="10"/>
<path d="M36.3945 137.282V112.712C36.3945 110.191 37.3402 103.8 43.929 97.6749C50.5178 91.5501 57.2485 84.4439 58.7144 83.1561C60.1803 81.8683 67.6676 78.272 72.6486 82.9834C77.6296 87.6947 95.1103 105.197 95.1103 105.197C95.1103 105.197 89.5934 109.697 84.8646 106.1L66.8164 88.2836L92.9114 114.196C92.9114 114.196 88.5215 118.994 82.0194 114.62L73.4052 106.038L61.2442 93.9215" fill="white"/>
<path d="M36.3945 137.282V112.712C36.3945 110.191 37.3402 103.8 43.929 97.6749C50.5178 91.5501 57.2485 84.4439 58.7144 83.1561C60.1803 81.8683 67.6676 78.272 72.6486 82.9834C77.6296 87.6947 95.1103 105.197 95.1103 105.197C95.1103 105.197 89.5934 109.697 84.8646 106.1L66.8164 88.2836L92.9114 114.196C92.9114 114.196 88.5215 118.994 82.0194 114.62L73.4052 106.038L61.2442 93.9215" stroke="#0A0A0A" stroke-miterlimit="10"/>
<path d="M72.8995 105.771C72.8995 105.771 76.257 115.194 66.0664 113.827Z" fill="white"/>
<path d="M72.8995 105.771C72.8995 105.771 76.257 115.194 66.0664 113.827" stroke="#0A0A0A" stroke-miterlimit="10"/>
<path d="M55.1984 99.3164L64.451 108.464C65.1761 109.195 67.3592 114.338 64.0649 116.733C60.7705 119.128 58.6189 118.751 55.8998 116.67C53.1808 114.589 48.8066 109.603 48.8066 109.603C48.8066 109.603 49.1219 107.585 52.3532 107.585" fill="white"/>
<path d="M55.1984 99.3164L64.451 108.464C65.1761 109.195 67.3592 114.338 64.0649 116.733C60.7705 119.128 58.6189 118.751 55.8998 116.67C53.1808 114.589 48.8066 109.603 48.8066 109.603C48.8066 109.603 49.1219 107.585 52.3532 107.585" stroke="#0A0A0A" stroke-miterlimit="10"/>
<path d="M49.8242 105.119L57.9893 113.254" stroke="#0A0A0A" stroke-miterlimit="10"/>
<path d="M53.9846 114.652C53.9846 114.652 55.1274 113.176 54.4496 112.422C53.7718 111.668 52.1719 110.019 52.1719 110.019" fill="white"/>
<path d="M53.9846 114.652C53.9846 114.652 55.1274 113.176 54.4496 112.422C53.7718 111.668 52.1719 110.019 52.1719 110.019" stroke="#0A0A0A" stroke-miterlimit="10"/>
<path d="M87.2293 108.802C87.2293 108.802 86.5515 110.608 87.4421 111.621C88.3326 112.634 89.4518 113.78 89.4518 113.78" fill="white"/>
<path d="M87.2293 108.802C87.2293 108.802 86.5515 110.608 87.4421 111.621C88.3326 112.634 89.4518 113.78 89.4518 113.78" stroke="#0A0A0A" stroke-miterlimit="10"/>
<path d="M89.3807 99.8428C89.0668 100.213 88.8945 100.681 88.8945 101.166C88.8945 101.65 89.0668 102.119 89.3807 102.489C90.0281 103.367 90.8131 104.136 91.7056 104.766" fill="white"/>
<path d="M89.3807 99.8428C89.0668 100.213 88.8945 100.681 88.8945 101.166C88.8945 101.65 89.0668 102.119 89.3807 102.489C90.0281 103.367 90.8131 104.136 91.7056 104.766" stroke="#0A0A0A" stroke-miterlimit="10"/>
<path d="M56.1523 125.064C56.1523 125.064 61.9136 126.069 67.4227 120.455C72.9317 114.84 74.902 112.602 76.0369 112.249" fill="white"/>
<path d="M56.1523 125.064C56.1523 125.064 61.9136 126.069 67.4227 120.455C72.9317 114.84 74.902 112.602 76.0369 112.249" stroke="#0A0A0A" stroke-miterlimit="10"/>
<path d="M62.3633 123.792V137.486" stroke="#0A0A0A" stroke-miterlimit="10"/>
<path d="M153.596 70V99.9209H117.965V26.3926H153.596V42.4583" fill="white"/>
<path d="M153.596 70V99.9209H117.965V26.3926H153.596V42.4583" stroke="#0A0A0A" stroke-miterlimit="10"/>
<path d="M161.919 140.015L159.768 142.221" stroke="#0A0A0A" stroke-miterlimit="10"/>
<path d="M160.382 144.812C160.382 144.812 156.71 147.168 158.444 149.689Z" fill="white"/>
<path d="M160.382 144.812C160.382 144.812 156.71 147.168 158.444 149.689" stroke="#0A0A0A" stroke-miterlimit="10"/>
<path d="M206 75.2729H193.461" stroke="#0A0A0A" stroke-miterlimit="10"/>
<path d="M205.487 102.536H182.45C175.013 102.377 167.84 99.7586 162.061 95.092C154.842 89.2813 153.5 87.5 153.5 87.5" fill="white"/>
<path d="M205.487 102.536H182.45C175.013 102.377 167.84 99.7586 162.061 95.092C154.842 89.2813 153.5 87.5 153.5 87.5" stroke="#0A0A0A" stroke-miterlimit="10"/>
<path d="M194.273 77.715C194.273 77.715 183.239 52.2266 182.703 51.1273C182.167 50.028 182.364 47.7665 172.567 44.5707C162.771 41.3748 148.08 35.8154 148.08 35.8154C148.08 35.8154 146.559 42.2935 151.233 44.9868" fill="white"/>
<path d="M194.273 77.715C194.273 77.715 183.239 52.2266 182.703 51.1273C182.167 50.028 182.364 47.7665 172.567 44.5707C162.771 41.3748 148.08 35.8154 148.08 35.8154C148.08 35.8154 146.559 42.2935 151.233 44.9868" stroke="#0A0A0A" stroke-miterlimit="10"/>
<path d="M155.803 38.6187C155.778 38.8374 155.703 39.0474 155.583 39.2322C155.463 39.4171 155.301 39.5718 155.111 39.6842C154.921 39.7967 154.708 39.864 154.488 39.8807C154.267 39.8975 154.046 39.8633 153.841 39.7808C152.099 39.3096 150.799 38.8071 150.799 38.8071" fill="white"/>
<path d="M155.803 38.6187C155.778 38.8374 155.703 39.0474 155.583 39.2322C155.463 39.4171 155.301 39.5718 155.111 39.6842C154.921 39.7967 154.708 39.864 154.488 39.8807C154.267 39.8975 154.046 39.8633 153.841 39.7808C152.099 39.3096 150.799 38.8071 150.799 38.8071" stroke="#0A0A0A" stroke-miterlimit="10"/>
<path d="M171.67 52.242L139.356 40.6992C139.356 40.6992 136.889 45.7482 142.209 49.9727" fill="white"/>
<path d="M171.67 52.242L139.356 40.6992C139.356 40.6992 136.889 45.7482 142.209 49.9727" stroke="#0A0A0A" stroke-miterlimit="10"/>
<path d="M146.15 43.44C146.15 43.44 144.573 45.0812 142.698 44.1703C141.909 43.8158 141.148 43.4037 140.42 42.9375" fill="white"/>
<path d="M146.15 43.44C146.15 43.44 144.573 45.0812 142.698 44.1703C141.909 43.8158 141.148 43.4037 140.42 42.9375" stroke="#0A0A0A" stroke-miterlimit="10"/>
<path d="M166.096 58.4295L133.586 46.6904C133.586 46.6904 131.56 53.2549 137.574 56.4115" fill="white"/>
<path d="M166.096 58.4295L133.586 46.6904C133.586 46.6904 131.56 53.2549 137.574 56.4115" stroke="#0A0A0A" stroke-miterlimit="10"/>
<path d="M140.68 49.5642C140.68 49.5642 139.411 51.4252 136.945 50.161L134.344 48.834" fill="white"/>
<path d="M140.68 49.5642C140.68 49.5642 139.411 51.4252 136.945 50.161L134.344 48.834" stroke="#0A0A0A" stroke-miterlimit="10"/>
<path d="M153.747 77.6127L165.719 84.8053C165.719 84.8053 161.471 74.7073 161.155 74.142C160.84 73.5766 160.84 72.6893 152.99 70.1687C145.141 67.6482 143.998 67.2634 142.603 66.5018C141.208 65.7401 136.392 65.1826 137.535 56.4116L163.181 65.5595" stroke="#0A0A0A" stroke-miterlimit="10"/>
<path d="M144.565 58.9323C144.458 59.3951 144.172 59.7972 143.769 60.0515C143.366 60.3058 142.879 60.3917 142.413 60.2907C141.204 59.9564 140.036 59.4903 138.93 58.9009" fill="white"/>
<path d="M144.565 58.9323C144.458 59.3951 144.172 59.7972 143.769 60.0515C143.366 60.3058 142.879 60.3917 142.413 60.2907C141.204 59.9564 140.036 59.4903 138.93 58.9009" stroke="#0A0A0A" stroke-miterlimit="10"/>
<path d="M133.752 108.503H103.945V137.274H133.752V108.503Z" fill="#1C6AF2"/>
</g>
<defs>
<clipPath id="clip0_833_4113">
<rect width="170" height="159" fill="white" transform="translate(36 26)"/>
</clipPath>
</defs>
</svg>
