<svg width="243" height="205" viewBox="0 0 243 205" fill="none" xmlns="http://www.w3.org/2000/svg">
<path d="M108.132 135.568H33.9613C30.669 135.568 28 138.237 28 141.53V163.837C28 167.129 30.669 169.798 33.9613 169.798H108.132C111.424 169.798 114.093 167.129 114.093 163.837V141.53C114.093 138.237 111.424 135.568 108.132 135.568Z" fill="black"/>
<path d="M45.0156 54.8918L46.0084 44.4595L62.8698 30L64.9995 51.385L58.018 60.112" fill="white"/>
<path d="M45.0156 54.8918L46.0084 44.4595L62.8698 30L64.9995 51.385L58.018 60.112" stroke="#1C6AF2" stroke-miterlimit="10"/>
<path d="M58.4916 47.302C58.7853 47.9898 58.829 48.7588 58.6151 49.4756C58.4011 50.1923 57.943 50.8115 57.3203 51.2258C56.6975 51.6402 55.9494 51.8234 55.2057 51.7439C54.462 51.6643 53.7696 51.327 53.2486 50.7903C52.7276 50.2537 52.4108 49.5516 52.3532 48.8058C52.2957 48.0601 52.501 47.3177 52.9336 46.7075C53.3661 46.0973 53.9986 45.6577 54.7213 45.465C55.4441 45.2723 56.2114 45.3387 56.8903 45.6526C57.6098 45.9853 58.1804 46.573 58.4916 47.302V47.302Z" stroke="#1C6AF2" stroke-miterlimit="10"/>
<path d="M62.8702 30L56.9375 45.6445" stroke="#1C6AF2" stroke-miterlimit="10"/>
<path d="M37.6816 65.2442L42.4534 54.0913L60.6759 61.6093L55.9522 72.6501L37.6816 65.2442Z" fill="white" stroke="#1C6AF2" stroke-miterlimit="10"/>
<path d="M177.374 48.5462L70.4525 48.5462L176.993 154.312C176.993 154.312 178.137 47.7712 177.374 48.5462Z" fill="white" stroke="black" stroke-miterlimit="10"/>
<path d="M151.598 73.0713L128.706 73.0713L151.502 96.2489L151.598 73.0713Z" fill="white" stroke="black" stroke-miterlimit="10"/>
<path d="M177.375 63.3662L168.826 63.3662" stroke="black" stroke-miterlimit="10"/>
<path d="M177.375 76.0176L168.826 76.0176" stroke="black" stroke-miterlimit="10"/>
<path d="M177.375 88.6548L168.826 88.6548" stroke="black" stroke-miterlimit="10"/>
<path d="M177.375 101.304L168.826 101.304" stroke="black" stroke-miterlimit="10"/>
<path d="M177.375 113.953L168.826 113.953" stroke="black" stroke-miterlimit="10"/>
<path d="M177.375 126.592L168.826 126.592" stroke="black" stroke-miterlimit="10"/>
<path d="M177.375 139.242L168.826 139.242" stroke="black" stroke-miterlimit="10"/>
<path d="M61.7109 122.697H168.502C173.354 122.697 189.7 131.388 189.7 149.01C189.7 166.632 201.969 174.31 215 174.31" stroke="black" stroke-miterlimit="10"/>
<path d="M167.987 119.239H159.939V127.287H167.987V119.239Z" fill="#1C6AF2" stroke="#1C6AF2" stroke-miterlimit="10"/>
<path d="M193.286 144.79H185.238V152.837H193.286V144.79Z" fill="white" stroke="black" stroke-miterlimit="10"/>
<path d="M111.249 131.316H37.0785C33.7862 131.316 31.1172 133.985 31.1172 137.278V159.585C31.1172 162.877 33.7862 165.546 37.0785 165.546H111.249C114.541 165.546 117.21 162.877 117.21 159.585V137.278C117.21 133.985 114.541 131.316 111.249 131.316Z" fill="#1C6AF2"/>
<path d="M68.543 139.424H109.557" stroke="white" stroke-miterlimit="10"/>
<path d="M68.543 145.755H109.557" stroke="white" stroke-miterlimit="10"/>
<path d="M68.543 152.074H109.557" stroke="white" stroke-miterlimit="10"/>
<path d="M68.543 158.393H109.557" stroke="white" stroke-miterlimit="10"/>
<path d="M48.6652 162.041C49.7118 162.041 50.7155 161.625 51.4556 160.885C52.1957 160.145 52.6115 159.141 52.6115 158.095V154.208H48.6652C47.6186 154.208 46.6147 154.624 45.8746 155.364C45.1345 156.104 44.7188 157.108 44.7188 158.154C44.7188 159.201 45.1345 160.205 45.8746 160.945C46.6147 161.685 47.6186 162.101 48.6652 162.101V162.041Z" fill="#2D7AEA" stroke="white" stroke-miterlimit="10"/>
<path d="M44.7192 150.19C44.7192 149.143 45.135 148.14 45.8751 147.4C46.6152 146.659 47.619 146.244 48.6657 146.244H52.612V154.208H48.6657C48.1418 154.206 47.6233 154.101 47.1405 153.898C46.6578 153.694 46.2202 153.397 45.8531 153.023C45.486 152.65 45.1968 152.207 45.0021 151.72C44.8075 151.234 44.7113 150.714 44.7192 150.19V150.19Z" fill="#2D7AEA" stroke="white" stroke-miterlimit="10"/>
<path d="M44.7188 142.285C44.7188 141.239 45.1345 140.235 45.8746 139.495C46.6147 138.755 47.6186 138.339 48.6652 138.339H52.6115V146.232H48.6652C47.6186 146.232 46.6147 145.816 45.8746 145.076C45.1345 144.336 44.7188 143.332 44.7188 142.285V142.285Z" fill="#2D7AEA" stroke="white" stroke-miterlimit="10"/>
<path d="M52.6141 138.351H56.5129C57.5595 138.351 58.5633 138.767 59.3034 139.507C60.0435 140.247 60.4593 141.251 60.4593 142.297C60.4593 143.344 60.0435 144.348 59.3034 145.088C58.5633 145.828 57.5595 146.244 56.5129 146.244H52.5664L52.6141 138.351Z" fill="#2D7AEA" stroke="white" stroke-miterlimit="10"/>
<path d="M60.5162 150.19C60.5185 150.973 60.2883 151.74 59.8548 152.392C59.4213 153.045 58.8041 153.554 58.081 153.856C57.3579 154.157 56.5616 154.237 55.793 154.086C55.0244 153.934 54.3179 153.558 53.7631 153.005C53.2084 152.452 52.8302 151.747 52.6765 150.979C52.5228 150.21 52.6006 149.414 52.8998 148.69C53.199 147.966 53.7063 147.347 54.3575 146.912C55.0087 146.476 55.7745 146.244 56.5579 146.244C57.6057 146.244 58.6106 146.659 59.3526 147.399C60.0946 148.139 60.513 149.142 60.5162 150.19V150.19Z" fill="#2D7AEA" stroke="white" stroke-miterlimit="10"/>
<path d="M142.451 100.568H63.5487C59.9319 100.568 57 103.534 57 107.193V130.944C57 134.603 59.9319 137.568 63.5487 137.568H142.451C146.068 137.568 149 134.603 149 130.944V107.193C149 103.534 146.068 100.568 142.451 100.568Z" fill="white" stroke="#1C6AF2" stroke-miterlimit="10"/>
<path d="M97 109.568H140" stroke="#1C6AF2" stroke-miterlimit="10"/>
<path d="M97 116.568H140" stroke="#1C6AF2" stroke-miterlimit="10"/>
<path d="M97 123.568H140" stroke="#1C6AF2" stroke-miterlimit="10"/>
<path d="M68.7367 108.568H82.2633C83.2544 108.568 84.2048 108.972 84.9056 109.69C85.6063 110.408 86 111.382 86 112.398V125.739C86 126.754 85.6063 127.728 84.9056 128.447C84.2048 129.165 83.2544 129.568 82.2633 129.568H68.7367C67.7456 129.568 66.7953 129.165 66.0946 128.447C65.3938 127.728 65 126.754 65 125.739V112.373C65.0066 111.361 65.4032 110.394 66.1032 109.681C66.8033 108.968 67.7499 108.568 68.7367 108.568V108.568Z" fill="#1C6AF2" stroke="#1C6AF2" stroke-miterlimit="10"/>
<path d="M74.9976 121.338H71.6508L70.9711 123.396C70.9696 123.415 70.9641 123.434 70.9547 123.451C70.9452 123.468 70.9322 123.483 70.9165 123.495C70.9007 123.507 70.8825 123.515 70.8632 123.52C70.8439 123.524 70.8239 123.525 70.8044 123.521H69.1118C69.0092 123.521 68.9836 123.521 69.0093 123.358L71.9072 115.214C71.9072 115.126 71.9073 115.026 71.997 114.925C72.0161 114.733 72.0161 114.54 71.997 114.348C71.997 114.348 71.9969 114.26 72.0739 114.248H74.395C74.4719 114.248 74.5103 114.273 74.5103 114.323L77.7932 123.383C77.7932 123.484 77.7931 123.521 77.7033 123.521H75.8312C75.799 123.525 75.7667 123.517 75.7405 123.498C75.7144 123.479 75.6964 123.452 75.6901 123.421L74.9976 121.338ZM72.1766 119.543H74.4591C74.4591 119.367 74.3309 119.142 74.2539 118.916C74.177 118.69 74.0871 118.426 74.0102 118.163L73.7538 117.347C73.664 117.071 73.5742 116.82 73.5101 116.569L73.305 115.879C73.2265 116.261 73.1237 116.638 72.9973 117.008C72.869 117.435 72.7279 117.874 72.5868 118.263C72.4458 118.652 72.3176 119.129 72.1894 119.518L72.1766 119.543ZM79.8705 115.778C79.7209 115.785 79.5716 115.76 79.4324 115.706C79.2932 115.652 79.1672 115.57 79.0626 115.465C78.8596 115.245 78.7496 114.958 78.7549 114.662C78.7549 114.517 78.7841 114.374 78.841 114.241C78.8979 114.108 78.9812 113.987 79.0861 113.885C79.1911 113.784 79.3156 113.703 79.4524 113.649C79.5892 113.595 79.7358 113.568 79.8833 113.57C80.0351 113.562 80.1868 113.586 80.3284 113.64C80.4699 113.694 80.5981 113.777 80.7041 113.884C80.9032 114.095 81.0091 114.374 80.999 114.662C81.0056 114.81 80.9804 114.958 80.9252 115.096C80.87 115.235 80.786 115.36 80.6784 115.465C80.5739 115.57 80.4479 115.652 80.3086 115.706C80.1694 115.76 80.0201 115.785 79.8705 115.778V115.778ZM78.8574 123.408V116.644C78.8574 116.557 78.8574 116.519 78.9728 116.519H80.7937C80.8707 116.519 80.9091 116.519 80.9091 116.644V123.408C80.9091 123.509 80.8707 123.559 80.7937 123.559H79.037C79.0148 123.567 78.9908 123.57 78.9672 123.567C78.9435 123.564 78.9211 123.555 78.9019 123.542C78.8827 123.528 78.8674 123.51 78.8574 123.488C78.8474 123.467 78.8429 123.444 78.8446 123.421L78.8574 123.408Z" fill="white"/>
</svg>
