<svg width="243" height="205" viewBox="0 0 243 205" fill="none" xmlns="http://www.w3.org/2000/svg">
<g clip-path="url(#clip0_833_4119)">
<path d="M145.203 145.259H109.564V170.801H145.203V145.259Z" fill="white" stroke="black" stroke-miterlimit="10"/>
<path d="M204.079 55.0527H43.6668C42.6017 55.0527 41.7383 55.9151 41.7383 56.979V147.233C41.7383 148.297 42.6017 149.16 43.6668 149.16H204.079C205.144 149.16 206.007 148.297 206.007 147.233V56.979C206.007 55.9151 205.144 55.0527 204.079 55.0527Z" fill="black"/>
<path d="M207.589 50.998H47.1765C46.1115 50.998 45.248 51.8605 45.248 52.9243V143.179C45.248 144.243 46.1115 145.105 47.1765 145.105H207.589C208.654 145.105 209.517 144.243 209.517 143.179V52.9243C209.517 51.8605 208.654 50.998 207.589 50.998Z" fill="white" stroke="black" stroke-miterlimit="10"/>
<path d="M144.663 170.955H110.104C109.119 170.955 108.32 171.753 108.32 172.737C108.32 173.721 109.119 174.519 110.104 174.519H144.663C145.648 174.519 146.447 173.721 146.447 172.737C146.447 171.753 145.648 170.955 144.663 170.955Z" fill="white" stroke="black" stroke-miterlimit="10"/>
<path d="M84.4558 46.5095H101.484C101.484 49.8773 100.485 53.1695 98.6113 55.9698C96.7381 58.77 94.0756 60.9525 90.9605 62.2414C87.8454 63.5302 84.4177 63.8674 81.1107 63.2104C77.8037 62.5533 74.7661 60.9316 72.3819 58.5502C69.9977 56.1687 68.374 53.1346 67.7162 49.8315C67.0585 46.5284 67.3961 43.1046 68.6864 39.9931C69.9767 36.8817 72.1618 34.2223 74.9653 32.3512C77.7688 30.4802 81.0647 29.4815 84.4365 29.4815C86.0686 29.4793 87.6925 29.7129 89.2577 30.1749L84.4558 46.5095Z" fill="white" stroke="black" stroke-miterlimit="10"/>
<path d="M83.9239 50.8242C86.0327 50.8242 87.7423 49.1167 87.7423 47.0103C87.7423 44.9039 86.0327 43.1963 83.9239 43.1963C81.815 43.1963 80.1055 44.9039 80.1055 47.0103C80.1055 49.1167 81.815 50.8242 83.9239 50.8242Z" fill="#1C6AF2"/>
<path d="M89.8171 61.958L85.8926 49.9863" stroke="#1C6AF2" stroke-miterlimit="10"/>
<path d="M55.7871 123.742H209.208" stroke="black" stroke-miterlimit="10"/>
<path d="M188.237 61.5246C189.036 61.5246 189.684 60.8778 189.684 60.0799C189.684 59.2821 189.036 58.6353 188.237 58.6353C187.439 58.6353 186.791 59.2821 186.791 60.0799C186.791 60.8778 187.439 61.5246 188.237 61.5246Z" stroke="black" stroke-miterlimit="10"/>
<path d="M194.331 61.5246C195.13 61.5246 195.778 60.8778 195.778 60.0799C195.778 59.2821 195.13 58.6353 194.331 58.6353C193.532 58.6353 192.885 59.2821 192.885 60.0799C192.885 60.8778 193.532 61.5246 194.331 61.5246Z" stroke="black" stroke-miterlimit="10"/>
<path d="M200.425 61.5246C201.224 61.5246 201.871 60.8778 201.871 60.0799C201.871 59.2821 201.224 58.6353 200.425 58.6353C199.626 58.6353 198.979 59.2821 198.979 60.0799C198.979 60.8778 199.626 61.5246 200.425 61.5246Z" stroke="black" stroke-miterlimit="10"/>
<path d="M81.5137 107.648V123.338" stroke="#1C6AF2" stroke-miterlimit="10"/>
<path d="M88.9492 102.698V123.338" stroke="#1C6AF2" stroke-miterlimit="10"/>
<path d="M96.3926 107.032V123.338" stroke="#1C6AF2" stroke-miterlimit="10"/>
<path d="M103.826 112.907V123.338" stroke="#1C6AF2" stroke-miterlimit="10"/>
<path d="M111.262 114.304V123.338" stroke="#1C6AF2" stroke-miterlimit="10"/>
<path d="M118.705 94.29V123.338" stroke="#1C6AF2" stroke-miterlimit="10"/>
<path d="M126.139 81.5381V123.338" stroke="#1C6AF2" stroke-miterlimit="10"/>
<path d="M133.584 80.7969V123.338" stroke="#1C6AF2" stroke-miterlimit="10"/>
<path d="M141.018 89.4648V123.338" stroke="#1C6AF2" stroke-miterlimit="10"/>
<path d="M148.461 105.559V123.338" stroke="#1C6AF2" stroke-miterlimit="10"/>
<path d="M155.896 106.271V123.338" stroke="#1C6AF2" stroke-miterlimit="10"/>
<path d="M163.33 94.6465V123.338" stroke="#1C6AF2" stroke-miterlimit="10"/>
<path d="M170.775 97.8442V123.338" stroke="#1C6AF2" stroke-miterlimit="10"/>
<path d="M178.209 107.649V123.338" stroke="#1C6AF2" stroke-miterlimit="10"/>
<path d="M55.8643 57.499L53.1934 60.4366L56.0572 62.9985" stroke="black" stroke-miterlimit="10"/>
<path d="M60.3589 62.9985L63.0298 60.0513L60.166 57.499" stroke="black" stroke-miterlimit="10"/>
<path d="M75.0059 123.434C75.0059 123.434 81.1963 100.936 89.0549 102.795C96.9135 104.653 104.753 116.625 109.921 115.383C115.09 114.14 118.599 80.3056 130.17 79.8914C141.741 79.4773 147.112 109.604 151.866 109.604C156.62 109.604 160.959 92.6817 165.713 93.51C170.466 94.3383 176.04 108.573 180.793 108.573" stroke="#1C6AF2" stroke-miterlimit="10"/>
<path d="M171.161 81.5054C171.161 81.5054 170.371 80.9372 171.316 80.186L173.504 78.2597C173.671 78.0877 173.895 77.9835 174.134 77.9675C174.373 77.9515 174.609 78.0248 174.797 78.1731L195.046 93.4578V100.778C195.046 100.778 195.046 101.933 193.561 101.808L171.161 81.5054Z" fill="#1C6AF2"/>
<path d="M176.369 86.2251L171.162 90.954C171.162 90.954 170.622 91.3489 171.162 92.0616L173.572 94.2575C173.669 94.3516 173.784 94.4245 173.91 94.4715C174.036 94.5185 174.171 94.5386 174.305 94.5304C174.44 94.5222 174.571 94.486 174.691 94.4241C174.81 94.3622 174.915 94.2759 175 94.1709L180.525 89.9909L176.369 86.2251Z" fill="#1C6AF2"/>
<path d="M185.509 86.2635L195.064 78.9823L194.997 71.6914C194.997 71.6914 194.592 70.1023 193.232 70.9306L180.523 82.488L185.509 86.2635Z" fill="#1C6AF2"/>
<path d="M193.514 101.789C193.67 101.95 193.864 102.069 194.078 102.135C194.292 102.2 194.52 102.211 194.739 102.164L202.183 98.5044C202.443 98.3635 202.657 98.1523 202.802 97.8951C202.947 97.6378 203.017 97.345 203.002 97.0501V75.168C202.986 74.8822 202.885 74.6077 202.714 74.3783C202.543 74.1489 202.308 73.9748 202.038 73.8774L195.587 70.7761C195.245 70.5168 194.82 70.3896 194.392 70.4179C193.963 70.4463 193.559 70.6281 193.254 70.9302C193.254 70.9302 194.44 70.073 195.018 71.691V100.585C195.021 100.784 194.978 100.982 194.893 101.163C194.72 101.5 194.353 101.818 193.466 101.683L193.514 101.789Z" fill="#1C6AF2"/>
</g>
<defs>
<clipPath id="clip0_833_4119">
<rect width="178" height="146" fill="white" transform="translate(32 29)"/>
</clipPath>
</defs>
</svg>
